<mxfile host="app.diagrams.net" agent="Mozilla/5.0 (Macintosh; Intel Mac OS X 10_15_7) AppleWebKit/537.36 (KHTML, like Gecko) Chrome/136.0.0.0 Safari/537.36" version="26.2.14">
  <diagram name="Training and Test Swimlanes" id="0">
    <mxGraphModel dx="720" dy="492" grid="1" gridSize="10" guides="1" tooltips="1" connect="1" arrows="1" fold="1" page="1" pageScale="1" pageWidth="827" pageHeight="1169" math="0" shadow="0">
      <root>
        <mxCell id="0" />
        <mxCell id="1" parent="0" />
        <mxCell id="trainingLane" value="Training" style="swimlane;horizontal=0;startSize=30;fillColor=#dae8fc;" parent="1" vertex="1">
          <mxGeometry x="20" y="40" width="610" height="700" as="geometry" />
        </mxCell>
        <mxCell id="CYrtcJWaWiuXOWPfvvp1-5" style="edgeStyle=orthogonalEdgeStyle;rounded=0;orthogonalLoop=1;jettySize=auto;html=1;entryX=0.5;entryY=0;entryDx=0;entryDy=0;" parent="trainingLane" source="t_article1" target="t_chunk11" edge="1">
          <mxGeometry relative="1" as="geometry" />
        </mxCell>
        <mxCell id="CYrtcJWaWiuXOWPfvvp1-6" style="edgeStyle=orthogonalEdgeStyle;rounded=0;orthogonalLoop=1;jettySize=auto;html=1;entryX=0.5;entryY=0;entryDx=0;entryDy=0;" parent="trainingLane" source="t_article1" target="t_chunk12" edge="1">
          <mxGeometry relative="1" as="geometry" />
        </mxCell>
        <mxCell id="t_article1" value="Article 1..m" style="rounded=1;fillColor=#dae8fc;strokeColor=#6c8ebf;" parent="trainingLane" vertex="1">
          <mxGeometry x="260" y="40" width="100" height="40" as="geometry" />
        </mxCell>
        <mxCell id="CYrtcJWaWiuXOWPfvvp1-12" style="edgeStyle=orthogonalEdgeStyle;rounded=0;orthogonalLoop=1;jettySize=auto;html=1;" parent="trainingLane" source="t_triple111" target="CYrtcJWaWiuXOWPfvvp1-11" edge="1">
          <mxGeometry relative="1" as="geometry">
            <Array as="points">
              <mxPoint x="90" y="375" />
            </Array>
          </mxGeometry>
        </mxCell>
        <mxCell id="t_triple111" value="Triple 1" style="rounded=1;fillColor=#fff2cc;strokeColor=#d6b656;" parent="trainingLane" vertex="1">
          <mxGeometry x="40" y="200" width="100" height="30" as="geometry" />
        </mxCell>
        <mxCell id="CYrtcJWaWiuXOWPfvvp1-13" style="edgeStyle=orthogonalEdgeStyle;rounded=0;orthogonalLoop=1;jettySize=auto;html=1;" parent="trainingLane" source="t_triple112" target="CYrtcJWaWiuXOWPfvvp1-11" edge="1">
          <mxGeometry relative="1" as="geometry" />
        </mxCell>
        <mxCell id="t_triple112" value="Triple o" style="rounded=1;fillColor=#fff2cc;strokeColor=#d6b656;" parent="trainingLane" vertex="1">
          <mxGeometry x="180" y="200" width="100" height="30" as="geometry" />
        </mxCell>
        <mxCell id="CYrtcJWaWiuXOWPfvvp1-14" style="edgeStyle=orthogonalEdgeStyle;rounded=0;orthogonalLoop=1;jettySize=auto;html=1;" parent="trainingLane" source="t_triple121" target="CYrtcJWaWiuXOWPfvvp1-11" edge="1">
          <mxGeometry relative="1" as="geometry" />
        </mxCell>
        <mxCell id="t_triple121" value="Triple 1" style="rounded=1;fillColor=#fff2cc;strokeColor=#d6b656;" parent="trainingLane" vertex="1">
          <mxGeometry x="320" y="200" width="100" height="30" as="geometry" />
        </mxCell>
        <mxCell id="CYrtcJWaWiuXOWPfvvp1-18" style="edgeStyle=orthogonalEdgeStyle;rounded=0;orthogonalLoop=1;jettySize=auto;html=1;" parent="trainingLane" source="t_triple122" target="CYrtcJWaWiuXOWPfvvp1-11" edge="1">
          <mxGeometry relative="1" as="geometry">
            <Array as="points">
              <mxPoint x="520" y="375" />
            </Array>
          </mxGeometry>
        </mxCell>
        <mxCell id="t_triple122" value="Triple p" style="rounded=1;fillColor=#fff2cc;strokeColor=#d6b656;" parent="trainingLane" vertex="1">
          <mxGeometry x="470" y="200" width="100" height="30" as="geometry" />
        </mxCell>
        <mxCell id="t_chunk11" value="Chunk 1" style="rounded=1;fillColor=#d5e8d4;strokeColor=#82b366;" parent="trainingLane" vertex="1">
          <mxGeometry x="110" y="120" width="100" height="40" as="geometry" />
        </mxCell>
        <mxCell id="CYrtcJWaWiuXOWPfvvp1-7" style="edgeStyle=orthogonalEdgeStyle;rounded=0;orthogonalLoop=1;jettySize=auto;html=1;entryX=0.5;entryY=0;entryDx=0;entryDy=0;" parent="trainingLane" source="t_chunk12" target="t_triple121" edge="1">
          <mxGeometry relative="1" as="geometry" />
        </mxCell>
        <mxCell id="t_chunk12" value="Chunk n" style="rounded=1;fillColor=#d5e8d4;strokeColor=#82b366;" parent="trainingLane" vertex="1">
          <mxGeometry x="400" y="120" width="100" height="40" as="geometry" />
        </mxCell>
        <mxCell id="CYrtcJWaWiuXOWPfvvp1-1" value="&lt;font style=&quot;font-size: 20px;&quot;&gt;...&lt;/font&gt;" style="text;html=1;align=center;verticalAlign=middle;resizable=0;points=[];autosize=1;strokeColor=none;fillColor=none;" parent="trainingLane" vertex="1">
          <mxGeometry x="290" y="120" width="40" height="40" as="geometry" />
        </mxCell>
        <mxCell id="CYrtcJWaWiuXOWPfvvp1-3" value="&lt;font style=&quot;font-size: 20px;&quot;&gt;...&lt;/font&gt;" style="text;html=1;align=center;verticalAlign=middle;resizable=0;points=[];autosize=1;strokeColor=none;fillColor=none;" parent="trainingLane" vertex="1">
          <mxGeometry x="140" y="190" width="40" height="40" as="geometry" />
        </mxCell>
        <mxCell id="CYrtcJWaWiuXOWPfvvp1-4" value="&lt;font style=&quot;font-size: 20px;&quot;&gt;...&lt;/font&gt;" style="text;html=1;align=center;verticalAlign=middle;resizable=0;points=[];autosize=1;strokeColor=none;fillColor=none;" parent="trainingLane" vertex="1">
          <mxGeometry x="424" y="190" width="40" height="40" as="geometry" />
        </mxCell>
        <mxCell id="CYrtcJWaWiuXOWPfvvp1-8" style="edgeStyle=orthogonalEdgeStyle;rounded=0;orthogonalLoop=1;jettySize=auto;html=1;entryX=0.594;entryY=-0.033;entryDx=0;entryDy=0;entryPerimeter=0;" parent="trainingLane" source="t_chunk12" target="t_triple122" edge="1">
          <mxGeometry relative="1" as="geometry" />
        </mxCell>
        <mxCell id="CYrtcJWaWiuXOWPfvvp1-9" style="edgeStyle=orthogonalEdgeStyle;rounded=0;orthogonalLoop=1;jettySize=auto;html=1;entryX=0.427;entryY=-0.061;entryDx=0;entryDy=0;entryPerimeter=0;" parent="trainingLane" source="t_chunk11" target="t_triple111" edge="1">
          <mxGeometry relative="1" as="geometry" />
        </mxCell>
        <mxCell id="CYrtcJWaWiuXOWPfvvp1-10" style="edgeStyle=orthogonalEdgeStyle;rounded=0;orthogonalLoop=1;jettySize=auto;html=1;entryX=0.602;entryY=0.022;entryDx=0;entryDy=0;entryPerimeter=0;" parent="trainingLane" source="t_chunk11" target="t_triple112" edge="1">
          <mxGeometry relative="1" as="geometry" />
        </mxCell>
        <mxCell id="CYrtcJWaWiuXOWPfvvp1-17" style="edgeStyle=orthogonalEdgeStyle;rounded=0;orthogonalLoop=1;jettySize=auto;html=1;entryX=0.5;entryY=0;entryDx=0;entryDy=0;shape=flexArrow;strokeWidth=6;" parent="trainingLane" source="CYrtcJWaWiuXOWPfvvp1-11" target="CYrtcJWaWiuXOWPfvvp1-16" edge="1">
          <mxGeometry relative="1" as="geometry" />
        </mxCell>
        <mxCell id="CYrtcJWaWiuXOWPfvvp1-11" value="&lt;b&gt;Babelscape/rebel-large&amp;nbsp;&lt;/b&gt;&lt;div&gt;embedding&lt;/div&gt;" style="ellipse;shape=cloud;whiteSpace=wrap;html=1;" parent="trainingLane" vertex="1">
          <mxGeometry x="215" y="310" width="190" height="130" as="geometry" />
        </mxCell>
        <mxCell id="CYrtcJWaWiuXOWPfvvp1-16" value="FAISS&amp;nbsp;&lt;div&gt;vector database +&lt;/div&gt;&lt;div&gt;backrefs to article/chunk/triple&lt;/div&gt;" style="shape=datastore;whiteSpace=wrap;html=1;" parent="trainingLane" vertex="1">
          <mxGeometry x="245" y="530" width="130" height="120" as="geometry" />
        </mxCell>
        <mxCell id="CYrtcJWaWiuXOWPfvvp1-19" value="Test" style="swimlane;horizontal=0;startSize=30;fillColor=#fff2cc;strokeColor=#d6b656;" parent="1" vertex="1">
          <mxGeometry x="670" y="40" width="610" height="700" as="geometry" />
        </mxCell>
        <mxCell id="CYrtcJWaWiuXOWPfvvp1-20" style="edgeStyle=orthogonalEdgeStyle;rounded=0;orthogonalLoop=1;jettySize=auto;html=1;entryX=0.5;entryY=0;entryDx=0;entryDy=0;" parent="CYrtcJWaWiuXOWPfvvp1-19" source="CYrtcJWaWiuXOWPfvvp1-22" target="CYrtcJWaWiuXOWPfvvp1-31" edge="1">
          <mxGeometry relative="1" as="geometry" />
        </mxCell>
        <mxCell id="CYrtcJWaWiuXOWPfvvp1-21" style="edgeStyle=orthogonalEdgeStyle;rounded=0;orthogonalLoop=1;jettySize=auto;html=1;entryX=0.5;entryY=0;entryDx=0;entryDy=0;" parent="CYrtcJWaWiuXOWPfvvp1-19" source="CYrtcJWaWiuXOWPfvvp1-22" target="CYrtcJWaWiuXOWPfvvp1-33" edge="1">
          <mxGeometry relative="1" as="geometry" />
        </mxCell>
        <mxCell id="CYrtcJWaWiuXOWPfvvp1-22" value="Article 1..m" style="rounded=1;fillColor=#dae8fc;strokeColor=#6c8ebf;" parent="CYrtcJWaWiuXOWPfvvp1-19" vertex="1">
          <mxGeometry x="260" y="40" width="100" height="40" as="geometry" />
        </mxCell>
        <mxCell id="CYrtcJWaWiuXOWPfvvp1-23" style="edgeStyle=orthogonalEdgeStyle;rounded=0;orthogonalLoop=1;jettySize=auto;html=1;" parent="CYrtcJWaWiuXOWPfvvp1-19" source="CYrtcJWaWiuXOWPfvvp1-24" target="CYrtcJWaWiuXOWPfvvp1-41" edge="1">
          <mxGeometry relative="1" as="geometry">
            <Array as="points">
              <mxPoint x="90" y="375" />
            </Array>
          </mxGeometry>
        </mxCell>
        <mxCell id="CYrtcJWaWiuXOWPfvvp1-24" value="Triple 1" style="rounded=1;fillColor=#fff2cc;strokeColor=#d6b656;" parent="CYrtcJWaWiuXOWPfvvp1-19" vertex="1">
          <mxGeometry x="40" y="200" width="100" height="30" as="geometry" />
        </mxCell>
        <mxCell id="CYrtcJWaWiuXOWPfvvp1-25" style="edgeStyle=orthogonalEdgeStyle;rounded=0;orthogonalLoop=1;jettySize=auto;html=1;" parent="CYrtcJWaWiuXOWPfvvp1-19" source="CYrtcJWaWiuXOWPfvvp1-26" target="CYrtcJWaWiuXOWPfvvp1-41" edge="1">
          <mxGeometry relative="1" as="geometry" />
        </mxCell>
        <mxCell id="CYrtcJWaWiuXOWPfvvp1-26" value="Triple o" style="rounded=1;fillColor=#fff2cc;strokeColor=#d6b656;" parent="CYrtcJWaWiuXOWPfvvp1-19" vertex="1">
          <mxGeometry x="180" y="200" width="100" height="30" as="geometry" />
        </mxCell>
        <mxCell id="CYrtcJWaWiuXOWPfvvp1-27" style="edgeStyle=orthogonalEdgeStyle;rounded=0;orthogonalLoop=1;jettySize=auto;html=1;" parent="CYrtcJWaWiuXOWPfvvp1-19" source="CYrtcJWaWiuXOWPfvvp1-28" target="CYrtcJWaWiuXOWPfvvp1-41" edge="1">
          <mxGeometry relative="1" as="geometry" />
        </mxCell>
        <mxCell id="CYrtcJWaWiuXOWPfvvp1-28" value="Triple 1" style="rounded=1;fillColor=#fff2cc;strokeColor=#d6b656;" parent="CYrtcJWaWiuXOWPfvvp1-19" vertex="1">
          <mxGeometry x="320" y="200" width="100" height="30" as="geometry" />
        </mxCell>
        <mxCell id="CYrtcJWaWiuXOWPfvvp1-29" style="edgeStyle=orthogonalEdgeStyle;rounded=0;orthogonalLoop=1;jettySize=auto;html=1;" parent="CYrtcJWaWiuXOWPfvvp1-19" source="CYrtcJWaWiuXOWPfvvp1-30" target="CYrtcJWaWiuXOWPfvvp1-41" edge="1">
          <mxGeometry relative="1" as="geometry">
            <Array as="points">
              <mxPoint x="520" y="375" />
            </Array>
          </mxGeometry>
        </mxCell>
        <mxCell id="CYrtcJWaWiuXOWPfvvp1-30" value="Triple p" style="rounded=1;fillColor=#fff2cc;strokeColor=#d6b656;" parent="CYrtcJWaWiuXOWPfvvp1-19" vertex="1">
          <mxGeometry x="470" y="200" width="100" height="30" as="geometry" />
        </mxCell>
        <mxCell id="CYrtcJWaWiuXOWPfvvp1-31" value="Chunk 1" style="rounded=1;fillColor=#d5e8d4;strokeColor=#82b366;" parent="CYrtcJWaWiuXOWPfvvp1-19" vertex="1">
          <mxGeometry x="110" y="120" width="100" height="40" as="geometry" />
        </mxCell>
        <mxCell id="CYrtcJWaWiuXOWPfvvp1-32" style="edgeStyle=orthogonalEdgeStyle;rounded=0;orthogonalLoop=1;jettySize=auto;html=1;entryX=0.5;entryY=0;entryDx=0;entryDy=0;" parent="CYrtcJWaWiuXOWPfvvp1-19" source="CYrtcJWaWiuXOWPfvvp1-33" target="CYrtcJWaWiuXOWPfvvp1-28" edge="1">
          <mxGeometry relative="1" as="geometry" />
        </mxCell>
        <mxCell id="CYrtcJWaWiuXOWPfvvp1-33" value="Chunk n" style="rounded=1;fillColor=#d5e8d4;strokeColor=#82b366;" parent="CYrtcJWaWiuXOWPfvvp1-19" vertex="1">
          <mxGeometry x="400" y="120" width="100" height="40" as="geometry" />
        </mxCell>
        <mxCell id="CYrtcJWaWiuXOWPfvvp1-34" value="&lt;font style=&quot;font-size: 20px;&quot;&gt;...&lt;/font&gt;" style="text;html=1;align=center;verticalAlign=middle;resizable=0;points=[];autosize=1;strokeColor=none;fillColor=none;" parent="CYrtcJWaWiuXOWPfvvp1-19" vertex="1">
          <mxGeometry x="290" y="120" width="40" height="40" as="geometry" />
        </mxCell>
        <mxCell id="CYrtcJWaWiuXOWPfvvp1-35" value="&lt;font style=&quot;font-size: 20px;&quot;&gt;...&lt;/font&gt;" style="text;html=1;align=center;verticalAlign=middle;resizable=0;points=[];autosize=1;strokeColor=none;fillColor=none;" parent="CYrtcJWaWiuXOWPfvvp1-19" vertex="1">
          <mxGeometry x="140" y="190" width="40" height="40" as="geometry" />
        </mxCell>
        <mxCell id="CYrtcJWaWiuXOWPfvvp1-36" value="&lt;font style=&quot;font-size: 20px;&quot;&gt;...&lt;/font&gt;" style="text;html=1;align=center;verticalAlign=middle;resizable=0;points=[];autosize=1;strokeColor=none;fillColor=none;" parent="CYrtcJWaWiuXOWPfvvp1-19" vertex="1">
          <mxGeometry x="424" y="190" width="40" height="40" as="geometry" />
        </mxCell>
        <mxCell id="CYrtcJWaWiuXOWPfvvp1-37" style="edgeStyle=orthogonalEdgeStyle;rounded=0;orthogonalLoop=1;jettySize=auto;html=1;entryX=0.594;entryY=-0.033;entryDx=0;entryDy=0;entryPerimeter=0;" parent="CYrtcJWaWiuXOWPfvvp1-19" source="CYrtcJWaWiuXOWPfvvp1-33" target="CYrtcJWaWiuXOWPfvvp1-30" edge="1">
          <mxGeometry relative="1" as="geometry" />
        </mxCell>
        <mxCell id="CYrtcJWaWiuXOWPfvvp1-38" style="edgeStyle=orthogonalEdgeStyle;rounded=0;orthogonalLoop=1;jettySize=auto;html=1;entryX=0.427;entryY=-0.061;entryDx=0;entryDy=0;entryPerimeter=0;" parent="CYrtcJWaWiuXOWPfvvp1-19" source="CYrtcJWaWiuXOWPfvvp1-31" target="CYrtcJWaWiuXOWPfvvp1-24" edge="1">
          <mxGeometry relative="1" as="geometry" />
        </mxCell>
        <mxCell id="CYrtcJWaWiuXOWPfvvp1-39" style="edgeStyle=orthogonalEdgeStyle;rounded=0;orthogonalLoop=1;jettySize=auto;html=1;entryX=0.602;entryY=0.022;entryDx=0;entryDy=0;entryPerimeter=0;" parent="CYrtcJWaWiuXOWPfvvp1-19" source="CYrtcJWaWiuXOWPfvvp1-31" target="CYrtcJWaWiuXOWPfvvp1-26" edge="1">
          <mxGeometry relative="1" as="geometry" />
        </mxCell>
        <mxCell id="CYrtcJWaWiuXOWPfvvp1-49" style="edgeStyle=orthogonalEdgeStyle;rounded=0;orthogonalLoop=1;jettySize=auto;html=1;entryX=0.5;entryY=0;entryDx=0;entryDy=0;" parent="CYrtcJWaWiuXOWPfvvp1-19" source="CYrtcJWaWiuXOWPfvvp1-41" target="CYrtcJWaWiuXOWPfvvp1-48" edge="1">
          <mxGeometry relative="1" as="geometry" />
        </mxCell>
        <mxCell id="CYrtcJWaWiuXOWPfvvp1-41" value="&lt;b&gt;Babelscape/rebel-large&amp;nbsp;&lt;/b&gt;&lt;div&gt;embedding&lt;/div&gt;" style="ellipse;shape=cloud;whiteSpace=wrap;html=1;" parent="CYrtcJWaWiuXOWPfvvp1-19" vertex="1">
          <mxGeometry x="215" y="310" width="190" height="130" as="geometry" />
        </mxCell>
        <mxCell id="CYrtcJWaWiuXOWPfvvp1-47" style="edgeStyle=orthogonalEdgeStyle;rounded=0;orthogonalLoop=1;jettySize=auto;html=1;" parent="CYrtcJWaWiuXOWPfvvp1-19" source="CYrtcJWaWiuXOWPfvvp1-45" target="CYrtcJWaWiuXOWPfvvp1-46" edge="1">
          <mxGeometry relative="1" as="geometry" />
        </mxCell>
        <mxCell id="CYrtcJWaWiuXOWPfvvp1-45" value="LLM" style="ellipse;shape=cloud;whiteSpace=wrap;html=1;" parent="CYrtcJWaWiuXOWPfvvp1-19" vertex="1">
          <mxGeometry x="250" y="560" width="120" height="80" as="geometry" />
        </mxCell>
        <mxCell id="CYrtcJWaWiuXOWPfvvp1-46" value="Classification" style="text;html=1;align=center;verticalAlign=middle;resizable=0;points=[];autosize=1;strokeColor=none;fillColor=none;fontSize=15;" parent="CYrtcJWaWiuXOWPfvvp1-19" vertex="1">
          <mxGeometry x="440" y="585" width="110" height="30" as="geometry" />
        </mxCell>
        <mxCell id="CYrtcJWaWiuXOWPfvvp1-50" style="edgeStyle=orthogonalEdgeStyle;rounded=0;orthogonalLoop=1;jettySize=auto;html=1;" parent="CYrtcJWaWiuXOWPfvvp1-19" source="CYrtcJWaWiuXOWPfvvp1-48" target="CYrtcJWaWiuXOWPfvvp1-45" edge="1">
          <mxGeometry relative="1" as="geometry" />
        </mxCell>
        <mxCell id="CYrtcJWaWiuXOWPfvvp1-48" value="add article/chunk/triple &#xa;context to prompt" style="rounded=1;fillColor=#d5e8d4;strokeColor=#82b366;" parent="CYrtcJWaWiuXOWPfvvp1-19" vertex="1">
          <mxGeometry x="237.5" y="470" width="145" height="60" as="geometry" />
        </mxCell>
        <mxCell id="SIZszOemmbzZJYr5V2Id-1" value="top k relevant&lt;div&gt;articles/chunks/triples&lt;/div&gt;" style="text;html=1;align=center;verticalAlign=middle;resizable=0;points=[];autosize=1;strokeColor=none;fillColor=none;" vertex="1" parent="CYrtcJWaWiuXOWPfvvp1-19">
          <mxGeometry x="340" y="430" width="140" height="40" as="geometry" />
        </mxCell>
        <mxCell id="CYrtcJWaWiuXOWPfvvp1-43" style="edgeStyle=orthogonalEdgeStyle;rounded=0;orthogonalLoop=1;jettySize=auto;html=1;entryX=1;entryY=0.7;entryDx=0;entryDy=0;elbow=vertical;curved=1;exitX=0.358;exitY=0.887;exitDx=0;exitDy=0;exitPerimeter=0;strokeWidth=2;startArrow=classic;startFill=1;" parent="1" source="CYrtcJWaWiuXOWPfvvp1-41" target="CYrtcJWaWiuXOWPfvvp1-16" edge="1">
          <mxGeometry relative="1" as="geometry" />
        </mxCell>
        <mxCell id="CYrtcJWaWiuXOWPfvvp1-44" value="Semantic&lt;div&gt;Similarity&lt;/div&gt;&lt;div&gt;Search&lt;/div&gt;" style="edgeLabel;html=1;align=center;verticalAlign=middle;resizable=0;points=[];" parent="CYrtcJWaWiuXOWPfvvp1-43" vertex="1" connectable="0">
          <mxGeometry x="-0.4506" y="15" relative="1" as="geometry">
            <mxPoint x="12" y="30" as="offset" />
          </mxGeometry>
        </mxCell>
      </root>
    </mxGraphModel>
  </diagram>
</mxfile>
